<?xml version="1.0" encoding="UTF-8"?>
<svg xmlns="http://www.w3.org/2000/svg" xmlns:xlink="http://www.w3.org/1999/xlink" width="854" height="480" viewBox="0 0 854 480">
<defs>
<g>
<g id="glyph-0-0">
<path d="M 10.542969 -7.695312 L 9.949219 -7.695312 C 9.792969 -8.15625 9.542969 -8.648438 9.195312 -9.175781 C 8.851562 -9.703125 8.53125 -9.984375 8.238281 -10.027344 C 8.074219 -10.046875 7.875 -10.0625 7.640625 -10.078125 C 7.402344 -10.09375 7.195312 -10.101562 7.023438 -10.101562 L 6.667969 -10.101562 L 6.667969 -1.648438 C 6.667969 -1.464844 6.703125 -1.304688 6.769531 -1.164062 C 6.832031 -1.027344 6.960938 -0.917969 7.15625 -0.835938 C 7.273438 -0.789062 7.453125 -0.742188 7.699219 -0.695312 C 7.945312 -0.648438 8.152344 -0.613281 8.324219 -0.59375 L 8.324219 0 L 2.316406 0 L 2.316406 -0.59375 C 2.464844 -0.609375 2.667969 -0.628906 2.9375 -0.65625 C 3.203125 -0.683594 3.382812 -0.71875 3.480469 -0.757812 C 3.675781 -0.839844 3.808594 -0.949219 3.875 -1.085938 C 3.941406 -1.222656 3.972656 -1.386719 3.972656 -1.574219 L 3.972656 -10.101562 L 3.617188 -10.101562 C 3.445312 -10.101562 3.238281 -10.09375 3.003906 -10.078125 C 2.765625 -10.0625 2.566406 -10.046875 2.402344 -10.027344 C 2.109375 -9.984375 1.792969 -9.703125 1.445312 -9.175781 C 1.097656 -8.648438 0.847656 -8.15625 0.691406 -7.695312 L 0.0976562 -7.695312 L 0.0976562 -10.777344 L 10.542969 -10.777344 Z "/>
</g>
<g id="glyph-0-1">
<path d="M 10.316406 0 L 5.75 0 L 5.75 -0.554688 C 5.851562 -0.566406 5.96875 -0.578125 6.105469 -0.59375 C 6.242188 -0.609375 6.34375 -0.632812 6.410156 -0.667969 C 6.515625 -0.722656 6.59375 -0.804688 6.636719 -0.910156 C 6.679688 -1.019531 6.699219 -1.175781 6.699219 -1.382812 L 6.699219 -4.9375 C 6.699219 -5.457031 6.601562 -5.847656 6.40625 -6.105469 C 6.210938 -6.363281 5.933594 -6.496094 5.574219 -6.496094 C 5.371094 -6.496094 5.183594 -6.464844 5.007812 -6.402344 C 4.835938 -6.34375 4.664062 -6.253906 4.496094 -6.136719 C 4.351562 -6.035156 4.230469 -5.933594 4.144531 -5.824219 C 4.054688 -5.71875 3.980469 -5.625 3.917969 -5.542969 L 3.917969 -1.464844 C 3.917969 -1.277344 3.941406 -1.128906 3.988281 -1.023438 C 4.035156 -0.914062 4.121094 -0.824219 4.246094 -0.753906 C 4.320312 -0.707031 4.421875 -0.664062 4.546875 -0.628906 C 4.671875 -0.59375 4.789062 -0.570312 4.90625 -0.554688 L 4.90625 0 L 0.273438 0 L 0.273438 -0.554688 C 0.40625 -0.566406 0.535156 -0.578125 0.660156 -0.59375 C 0.785156 -0.609375 0.894531 -0.632812 0.992188 -0.667969 C 1.15625 -0.730469 1.265625 -0.816406 1.324219 -0.929688 C 1.382812 -1.042969 1.414062 -1.195312 1.414062 -1.382812 L 1.414062 -9.851562 C 1.414062 -10.011719 1.375 -10.1875 1.300781 -10.367188 C 1.222656 -10.550781 1.117188 -10.6875 0.980469 -10.777344 C 0.878906 -10.84375 0.730469 -10.894531 0.539062 -10.933594 C 0.347656 -10.972656 0.175781 -10.996094 0.0234375 -11.007812 L 0.0234375 -11.5625 L 3.804688 -11.757812 L 3.917969 -11.636719 L 3.917969 -6.410156 L 3.949219 -6.410156 C 4.140625 -6.582031 4.316406 -6.738281 4.46875 -6.878906 C 4.625 -7.015625 4.8125 -7.15625 5.035156 -7.300781 C 5.222656 -7.421875 5.464844 -7.523438 5.765625 -7.609375 C 6.066406 -7.695312 6.390625 -7.738281 6.742188 -7.738281 C 7.558594 -7.738281 8.175781 -7.503906 8.585938 -7.035156 C 9 -6.5625 9.207031 -5.941406 9.207031 -5.171875 L 9.207031 -1.449219 C 9.207031 -1.261719 9.234375 -1.113281 9.289062 -1.003906 C 9.34375 -0.890625 9.449219 -0.800781 9.601562 -0.738281 C 9.691406 -0.695312 9.792969 -0.660156 9.90625 -0.628906 C 10.015625 -0.601562 10.152344 -0.574219 10.316406 -0.554688 Z "/>
</g>
<g id="glyph-0-2">
<path d="M 8.605469 -1.816406 C 8.429688 -1.527344 8.214844 -1.253906 7.964844 -1 C 7.714844 -0.742188 7.429688 -0.523438 7.109375 -0.34375 C 6.769531 -0.148438 6.425781 -0.00390625 6.082031 0.09375 C 5.734375 0.195312 5.335938 0.242188 4.882812 0.242188 C 4.132812 0.242188 3.488281 0.136719 2.941406 -0.0742188 C 2.398438 -0.289062 1.949219 -0.574219 1.59375 -0.933594 C 1.242188 -1.292969 0.976562 -1.71875 0.800781 -2.207031 C 0.625 -2.695312 0.539062 -3.226562 0.539062 -3.796875 C 0.539062 -4.3125 0.632812 -4.808594 0.824219 -5.28125 C 1.015625 -5.757812 1.285156 -6.179688 1.632812 -6.546875 C 1.976562 -6.90625 2.410156 -7.199219 2.9375 -7.421875 C 3.460938 -7.644531 4.046875 -7.753906 4.695312 -7.753906 C 5.402344 -7.753906 5.984375 -7.667969 6.441406 -7.496094 C 6.898438 -7.324219 7.273438 -7.085938 7.574219 -6.78125 C 7.863281 -6.496094 8.070312 -6.152344 8.203125 -5.761719 C 8.335938 -5.367188 8.402344 -4.957031 8.402344 -4.527344 L 8.402344 -4.035156 L 3.265625 -4.035156 C 3.265625 -2.996094 3.464844 -2.207031 3.867188 -1.664062 C 4.265625 -1.121094 4.902344 -0.851562 5.773438 -0.851562 C 6.25 -0.851562 6.675781 -0.980469 7.054688 -1.242188 C 7.4375 -1.503906 7.761719 -1.832031 8.027344 -2.234375 L 8.605469 -1.816406 M 5.703125 -4.703125 C 5.703125 -5.003906 5.6875 -5.316406 5.660156 -5.636719 C 5.628906 -5.953125 5.574219 -6.214844 5.5 -6.417969 C 5.414062 -6.65625 5.296875 -6.835938 5.144531 -6.957031 C 4.996094 -7.078125 4.808594 -7.140625 4.582031 -7.140625 C 4.191406 -7.140625 3.878906 -6.941406 3.644531 -6.546875 C 3.414062 -6.152344 3.285156 -5.527344 3.265625 -4.671875 Z "/>
</g>
<g id="glyph-0-3">
</g>
<g id="glyph-0-4">
<path d="M 10.625 -8.082031 C 10.625 -7.472656 10.5 -6.953125 10.25 -6.511719 C 10 -6.074219 9.652344 -5.71875 9.214844 -5.445312 C 8.757812 -5.164062 8.238281 -4.957031 7.652344 -4.832031 C 7.066406 -4.703125 6.410156 -4.640625 5.679688 -4.640625 L 4.800781 -4.640625 L 4.800781 -1.609375 C 4.800781 -1.429688 4.835938 -1.269531 4.902344 -1.136719 C 4.972656 -1 5.101562 -0.894531 5.292969 -0.8125 C 5.394531 -0.773438 5.558594 -0.730469 5.789062 -0.683594 C 6.015625 -0.636719 6.207031 -0.609375 6.363281 -0.59375 L 6.363281 0 L 0.523438 0 L 0.523438 -0.59375 C 0.671875 -0.609375 0.867188 -0.628906 1.109375 -0.65625 C 1.351562 -0.683594 1.523438 -0.71875 1.617188 -0.757812 C 1.816406 -0.839844 1.945312 -0.9375 2.007812 -1.054688 C 2.074219 -1.171875 2.105469 -1.335938 2.105469 -1.542969 L 2.105469 -9.144531 C 2.105469 -9.324219 2.074219 -9.476562 2.011719 -9.605469 C 1.953125 -9.734375 1.820312 -9.839844 1.617188 -9.925781 C 1.476562 -9.988281 1.289062 -10.042969 1.050781 -10.089844 C 0.816406 -10.140625 0.640625 -10.171875 0.523438 -10.1875 L 0.523438 -10.777344 L 6.472656 -10.777344 C 7.863281 -10.777344 8.90625 -10.558594 9.59375 -10.113281 C 10.28125 -9.671875 10.625 -8.992188 10.625 -8.082031 M 7.664062 -7.695312 C 7.664062 -8.503906 7.5 -9.105469 7.175781 -9.5 C 6.847656 -9.890625 6.265625 -10.085938 5.429688 -10.085938 L 4.800781 -10.085938 L 4.800781 -5.355469 L 5.121094 -5.355469 C 5.949219 -5.355469 6.582031 -5.546875 7.015625 -5.929688 C 7.449219 -6.3125 7.664062 -6.898438 7.664062 -7.695312 Z "/>
</g>
<g id="glyph-0-5">
<path d="M 9.121094 -0.160156 C 8.898438 -0.0625 8.636719 0.0234375 8.335938 0.105469 C 8.03125 0.1875 7.710938 0.226562 7.371094 0.226562 C 6.75 0.226562 6.292969 0.136719 6 -0.0507812 C 5.707031 -0.234375 5.507812 -0.5 5.402344 -0.84375 L 5.355469 -0.84375 C 5.183594 -0.671875 5.015625 -0.523438 4.855469 -0.402344 C 4.695312 -0.28125 4.527344 -0.175781 4.34375 -0.0898438 C 4.105469 0.0195312 3.875 0.105469 3.65625 0.160156 C 3.433594 0.214844 3.125 0.242188 2.730469 0.242188 C 2.140625 0.242188 1.640625 0.0703125 1.222656 -0.277344 C 0.808594 -0.625 0.601562 -1.085938 0.601562 -1.660156 C 0.601562 -1.988281 0.644531 -2.269531 0.738281 -2.5 C 0.828125 -2.730469 0.957031 -2.933594 1.125 -3.113281 C 1.277344 -3.273438 1.453125 -3.410156 1.652344 -3.515625 C 1.855469 -3.621094 2.074219 -3.71875 2.3125 -3.8125 C 2.769531 -3.980469 3.316406 -4.152344 3.957031 -4.332031 C 4.59375 -4.511719 5.0625 -4.671875 5.355469 -4.816406 L 5.355469 -5.542969 C 5.355469 -5.671875 5.34375 -5.839844 5.324219 -6.046875 C 5.304688 -6.253906 5.261719 -6.429688 5.195312 -6.570312 C 5.125 -6.730469 5.011719 -6.867188 4.859375 -6.980469 C 4.710938 -7.09375 4.507812 -7.148438 4.261719 -7.148438 C 4.039062 -7.148438 3.851562 -7.117188 3.703125 -7.050781 C 3.554688 -6.988281 3.433594 -6.925781 3.339844 -6.859375 C 3.355469 -6.757812 3.398438 -6.601562 3.472656 -6.394531 C 3.542969 -6.1875 3.578125 -5.988281 3.578125 -5.796875 C 3.578125 -5.710938 3.554688 -5.601562 3.507812 -5.472656 C 3.464844 -5.34375 3.398438 -5.242188 3.3125 -5.164062 C 3.195312 -5.0625 3.0625 -4.984375 2.917969 -4.929688 C 2.773438 -4.875 2.550781 -4.847656 2.253906 -4.847656 C 1.824219 -4.847656 1.503906 -4.949219 1.285156 -5.152344 C 1.066406 -5.359375 0.957031 -5.625 0.957031 -5.953125 C 0.957031 -6.238281 1.070312 -6.492188 1.296875 -6.71875 C 1.519531 -6.945312 1.796875 -7.128906 2.121094 -7.277344 C 2.4375 -7.429688 2.804688 -7.546875 3.21875 -7.628906 C 3.636719 -7.714844 4.019531 -7.753906 4.375 -7.753906 C 4.867188 -7.753906 5.316406 -7.726562 5.726562 -7.667969 C 6.136719 -7.609375 6.507812 -7.488281 6.835938 -7.308594 C 7.148438 -7.128906 7.398438 -6.871094 7.585938 -6.535156 C 7.769531 -6.199219 7.863281 -5.761719 7.863281 -5.21875 C 7.863281 -4.644531 7.851562 -3.96875 7.828125 -3.183594 C 7.804688 -2.398438 7.792969 -1.882812 7.792969 -1.632812 C 7.792969 -1.40625 7.828125 -1.226562 7.894531 -1.09375 C 7.964844 -0.960938 8.070312 -0.863281 8.210938 -0.796875 C 8.296875 -0.757812 8.433594 -0.734375 8.617188 -0.726562 C 8.800781 -0.71875 8.96875 -0.714844 9.121094 -0.714844 L 9.121094 -0.160156 M 5.355469 -4.117188 C 5.070312 -4.019531 4.789062 -3.910156 4.507812 -3.785156 C 4.230469 -3.660156 4 -3.53125 3.824219 -3.394531 C 3.636719 -3.25 3.488281 -3.070312 3.378906 -2.847656 C 3.273438 -2.628906 3.21875 -2.367188 3.21875 -2.070312 C 3.21875 -1.671875 3.3125 -1.386719 3.492188 -1.207031 C 3.671875 -1.03125 3.894531 -0.941406 4.15625 -0.941406 C 4.4375 -0.941406 4.667969 -1 4.847656 -1.113281 C 5.027344 -1.226562 5.1875 -1.367188 5.324219 -1.535156 Z "/>
</g>
<g id="glyph-0-6">
<path d="M 5.242188 0 L 0.441406 0 L 0.441406 -0.554688 C 0.570312 -0.566406 0.703125 -0.578125 0.828125 -0.59375 C 0.953125 -0.609375 1.0625 -0.632812 1.15625 -0.667969 C 1.316406 -0.730469 1.429688 -0.816406 1.496094 -0.929688 C 1.5625 -1.042969 1.59375 -1.195312 1.59375 -1.382812 L 1.59375 -5.804688 C 1.59375 -5.980469 1.554688 -6.136719 1.472656 -6.269531 C 1.390625 -6.40625 1.292969 -6.511719 1.167969 -6.59375 C 1.078125 -6.652344 0.941406 -6.710938 0.753906 -6.769531 C 0.570312 -6.824219 0.402344 -6.859375 0.25 -6.875 L 0.25 -7.429688 L 3.972656 -7.625 L 4.085938 -7.511719 L 4.085938 -1.480469 C 4.085938 -1.304688 4.125 -1.152344 4.199219 -1.027344 C 4.277344 -0.90625 4.386719 -0.8125 4.527344 -0.753906 C 4.628906 -0.707031 4.738281 -0.664062 4.859375 -0.628906 C 4.984375 -0.59375 5.109375 -0.570312 5.242188 -0.554688 L 5.242188 0 M 4.132812 -10.359375 C 4.132812 -9.976562 3.984375 -9.648438 3.6875 -9.375 C 3.390625 -9.105469 3.039062 -8.96875 2.636719 -8.96875 C 2.226562 -8.96875 1.871094 -9.105469 1.574219 -9.375 C 1.28125 -9.648438 1.132812 -9.976562 1.132812 -10.359375 C 1.132812 -10.746094 1.28125 -11.074219 1.574219 -11.347656 C 1.871094 -11.621094 2.226562 -11.757812 2.636719 -11.757812 C 3.046875 -11.757812 3.398438 -11.621094 3.691406 -11.347656 C 3.984375 -11.074219 4.132812 -10.746094 4.132812 -10.359375 Z "/>
</g>
<g id="glyph-0-7">
<path d="M 8.007812 -6.144531 C 8.007812 -5.761719 7.886719 -5.421875 7.648438 -5.132812 C 7.410156 -4.839844 7.097656 -4.695312 6.707031 -4.695312 C 6.335938 -4.695312 6.023438 -4.789062 5.769531 -4.972656 C 5.511719 -5.160156 5.386719 -5.433594 5.386719 -5.796875 C 5.386719 -5.976562 5.398438 -6.113281 5.421875 -6.210938 C 5.449219 -6.308594 5.472656 -6.402344 5.492188 -6.488281 C 5.257812 -6.476562 5.011719 -6.394531 4.753906 -6.246094 C 4.496094 -6.09375 4.269531 -5.894531 4.070312 -5.644531 L 4.070312 -1.472656 C 4.070312 -1.296875 4.097656 -1.148438 4.15625 -1.03125 C 4.210938 -0.917969 4.304688 -0.824219 4.4375 -0.757812 C 4.546875 -0.703125 4.726562 -0.65625 4.980469 -0.617188 C 5.230469 -0.582031 5.410156 -0.558594 5.523438 -0.554688 L 5.523438 0 L 0.441406 0 L 0.441406 -0.554688 C 0.566406 -0.566406 0.695312 -0.578125 0.824219 -0.597656 C 0.953125 -0.613281 1.0625 -0.636719 1.15625 -0.667969 C 1.316406 -0.722656 1.429688 -0.808594 1.488281 -0.925781 C 1.550781 -1.042969 1.578125 -1.195312 1.578125 -1.382812 L 1.578125 -5.804688 C 1.578125 -5.984375 1.535156 -6.148438 1.449219 -6.292969 C 1.363281 -6.4375 1.261719 -6.550781 1.140625 -6.636719 C 1.046875 -6.699219 0.933594 -6.75 0.792969 -6.789062 C 0.65625 -6.832031 0.5 -6.859375 0.335938 -6.875 L 0.335938 -7.429688 L 3.957031 -7.625 L 4.070312 -7.511719 L 4.070312 -6.410156 L 4.101562 -6.410156 C 4.449219 -6.816406 4.820312 -7.132812 5.214844 -7.363281 C 5.605469 -7.59375 6.015625 -7.710938 6.441406 -7.710938 C 6.910156 -7.710938 7.289062 -7.5625 7.578125 -7.273438 C 7.863281 -6.980469 8.007812 -6.605469 8.007812 -6.144531 Z "/>
</g>
<g id="glyph-0-8">
<path d="M 10.46875 0 L 5.902344 0 L 5.902344 -0.554688 C 6 -0.566406 6.113281 -0.578125 6.25 -0.59375 C 6.386719 -0.609375 6.492188 -0.632812 6.5625 -0.667969 C 6.667969 -0.722656 6.746094 -0.804688 6.789062 -0.910156 C 6.835938 -1.019531 6.859375 -1.175781 6.859375 -1.382812 L 6.859375 -4.9375 C 6.859375 -5.453125 6.765625 -5.84375 6.574219 -6.101562 C 6.382812 -6.363281 6.101562 -6.496094 5.730469 -6.496094 C 5.527344 -6.496094 5.339844 -6.464844 5.164062 -6.402344 C 4.988281 -6.34375 4.816406 -6.253906 4.648438 -6.136719 C 4.503906 -6.035156 4.386719 -5.933594 4.296875 -5.824219 C 4.207031 -5.71875 4.132812 -5.625 4.070312 -5.542969 L 4.070312 -1.464844 C 4.070312 -1.289062 4.097656 -1.140625 4.148438 -1.023438 C 4.199219 -0.902344 4.28125 -0.8125 4.398438 -0.753906 C 4.480469 -0.707031 4.582031 -0.664062 4.703125 -0.628906 C 4.824219 -0.59375 4.941406 -0.570312 5.058594 -0.554688 L 5.058594 0 L 0.441406 0 L 0.441406 -0.554688 C 0.566406 -0.566406 0.695312 -0.578125 0.824219 -0.597656 C 0.953125 -0.613281 1.0625 -0.636719 1.15625 -0.667969 C 1.316406 -0.722656 1.429688 -0.808594 1.488281 -0.925781 C 1.550781 -1.042969 1.578125 -1.195312 1.578125 -1.382812 L 1.578125 -5.804688 C 1.578125 -5.960938 1.539062 -6.113281 1.457031 -6.265625 C 1.378906 -6.417969 1.269531 -6.542969 1.140625 -6.636719 C 1.046875 -6.699219 0.933594 -6.75 0.792969 -6.789062 C 0.65625 -6.832031 0.5 -6.859375 0.335938 -6.875 L 0.335938 -7.429688 L 3.957031 -7.625 L 4.070312 -7.511719 L 4.070312 -6.410156 L 4.101562 -6.410156 C 4.242188 -6.539062 4.414062 -6.6875 4.617188 -6.867188 C 4.820312 -7.042969 5.007812 -7.1875 5.179688 -7.300781 C 5.367188 -7.421875 5.613281 -7.523438 5.917969 -7.609375 C 6.222656 -7.695312 6.546875 -7.738281 6.890625 -7.738281 C 7.714844 -7.738281 8.332031 -7.503906 8.746094 -7.039062 C 9.160156 -6.570312 9.367188 -5.949219 9.367188 -5.171875 L 9.367188 -1.449219 C 9.367188 -1.261719 9.394531 -1.113281 9.449219 -1.003906 C 9.503906 -0.890625 9.609375 -0.800781 9.761719 -0.738281 C 9.839844 -0.703125 9.941406 -0.664062 10.058594 -0.628906 C 10.179688 -0.59375 10.316406 -0.570312 10.46875 -0.554688 Z "/>
</g>
<g id="glyph-0-9">
<path d="M 8.949219 -6.683594 L 7.277344 -6.683594 C 7.472656 -6.460938 7.621094 -6.226562 7.722656 -5.980469 C 7.820312 -5.734375 7.871094 -5.476562 7.871094 -5.210938 C 7.871094 -4.859375 7.777344 -4.535156 7.589844 -4.226562 C 7.402344 -3.921875 7.15625 -3.671875 6.851562 -3.480469 C 6.542969 -3.28125 6.179688 -3.125 5.765625 -3.015625 C 5.351562 -2.902344 4.898438 -2.847656 4.414062 -2.847656 L 3.175781 -2.847656 C 3.113281 -2.800781 3.046875 -2.730469 2.972656 -2.628906 C 2.898438 -2.53125 2.863281 -2.433594 2.863281 -2.34375 C 2.863281 -2.121094 2.953125 -1.964844 3.128906 -1.878906 C 3.308594 -1.789062 3.628906 -1.742188 4.09375 -1.730469 C 4.554688 -1.722656 5.019531 -1.703125 5.492188 -1.675781 C 5.960938 -1.648438 6.300781 -1.628906 6.5 -1.625 C 6.796875 -1.609375 7.085938 -1.550781 7.375 -1.445312 C 7.664062 -1.34375 7.914062 -1.207031 8.128906 -1.039062 C 8.359375 -0.863281 8.554688 -0.636719 8.703125 -0.359375 C 8.855469 -0.0859375 8.933594 0.234375 8.933594 0.59375 C 8.933594 0.976562 8.839844 1.339844 8.65625 1.679688 C 8.46875 2.019531 8.1875 2.3125 7.808594 2.558594 C 7.410156 2.816406 6.929688 3.019531 6.367188 3.160156 C 5.808594 3.300781 5.117188 3.371094 4.292969 3.371094 C 2.960938 3.371094 1.945312 3.210938 1.253906 2.886719 C 0.558594 2.5625 0.210938 2.074219 0.210938 1.429688 C 0.210938 1.027344 0.398438 0.699219 0.773438 0.441406 C 1.148438 0.183594 1.730469 0.0390625 2.519531 0.015625 L 2.519531 -0.0742188 C 2.054688 -0.234375 1.691406 -0.441406 1.429688 -0.703125 C 1.171875 -0.964844 1.039062 -1.269531 1.039062 -1.613281 C 1.039062 -1.828125 1.09375 -2.007812 1.195312 -2.15625 C 1.300781 -2.300781 1.433594 -2.429688 1.59375 -2.542969 C 1.738281 -2.640625 1.910156 -2.722656 2.113281 -2.789062 C 2.3125 -2.859375 2.484375 -2.914062 2.621094 -2.953125 L 2.621094 -3.039062 C 1.9375 -3.292969 1.433594 -3.601562 1.113281 -3.964844 C 0.792969 -4.328125 0.628906 -4.773438 0.628906 -5.300781 C 0.628906 -6.046875 0.972656 -6.640625 1.660156 -7.085938 C 2.347656 -7.53125 3.214844 -7.753906 4.269531 -7.753906 C 4.613281 -7.753906 4.945312 -7.726562 5.269531 -7.667969 C 5.589844 -7.609375 5.832031 -7.558594 6 -7.511719 L 8.949219 -7.511719 L 8.949219 -6.683594 M 5.386719 -5.242188 C 5.386719 -5.832031 5.292969 -6.300781 5.101562 -6.644531 C 4.914062 -6.992188 4.625 -7.164062 4.234375 -7.164062 C 4.035156 -7.164062 3.863281 -7.117188 3.714844 -7.023438 C 3.570312 -6.929688 3.449219 -6.792969 3.359375 -6.617188 C 3.273438 -6.445312 3.214844 -6.242188 3.183594 -6.011719 C 3.152344 -5.78125 3.136719 -5.542969 3.136719 -5.300781 C 3.136719 -4.75 3.234375 -4.296875 3.425781 -3.941406 C 3.621094 -3.585938 3.894531 -3.410156 4.25 -3.410156 C 4.617188 -3.410156 4.894531 -3.570312 5.09375 -3.890625 C 5.289062 -4.207031 5.386719 -4.660156 5.386719 -5.242188 M 6.652344 1.148438 C 6.652344 0.976562 6.605469 0.804688 6.511719 0.632812 C 6.414062 0.464844 6.199219 0.328125 5.867188 0.21875 C 5.683594 0.191406 5.382812 0.167969 4.96875 0.160156 C 4.550781 0.148438 3.976562 0.144531 3.25 0.144531 C 3.074219 0.296875 2.925781 0.476562 2.804688 0.683594 C 2.6875 0.890625 2.628906 1.140625 2.628906 1.4375 C 2.628906 1.5625 2.664062 1.703125 2.734375 1.851562 C 2.804688 2.003906 2.917969 2.148438 3.066406 2.277344 C 3.246094 2.425781 3.441406 2.539062 3.660156 2.625 C 3.875 2.707031 4.203125 2.75 4.644531 2.75 C 5.296875 2.75 5.792969 2.625 6.136719 2.371094 C 6.480469 2.117188 6.652344 1.710938 6.652344 1.148438 Z "/>
</g>
<g id="glyph-0-10">
<path d="M 4.777344 0.242188 C 4.074219 0.242188 3.453125 0.140625 2.914062 -0.0664062 C 2.375 -0.269531 1.929688 -0.550781 1.578125 -0.902344 C 1.230469 -1.261719 0.96875 -1.6875 0.796875 -2.179688 C 0.625 -2.671875 0.539062 -3.207031 0.539062 -3.78125 C 0.539062 -4.308594 0.644531 -4.8125 0.855469 -5.285156 C 1.066406 -5.761719 1.347656 -6.179688 1.710938 -6.539062 C 2.078125 -6.910156 2.539062 -7.203125 3.085938 -7.425781 C 3.636719 -7.644531 4.242188 -7.753906 4.90625 -7.753906 C 5.839844 -7.753906 6.574219 -7.578125 7.117188 -7.226562 C 7.660156 -6.875 7.929688 -6.402344 7.929688 -5.804688 C 7.929688 -5.4375 7.832031 -5.144531 7.640625 -4.921875 C 7.449219 -4.699219 7.117188 -4.585938 6.644531 -4.585938 C 6.265625 -4.585938 5.949219 -4.679688 5.691406 -4.859375 C 5.4375 -5.042969 5.308594 -5.28125 5.308594 -5.574219 C 5.308594 -5.824219 5.351562 -6.070312 5.429688 -6.3125 C 5.511719 -6.554688 5.558594 -6.738281 5.574219 -6.867188 C 5.519531 -6.957031 5.449219 -7.027344 5.363281 -7.074219 C 5.277344 -7.125 5.140625 -7.148438 4.960938 -7.148438 C 4.730469 -7.148438 4.523438 -7.09375 4.335938 -6.988281 C 4.148438 -6.882812 3.976562 -6.695312 3.8125 -6.425781 C 3.65625 -6.171875 3.53125 -5.832031 3.4375 -5.40625 C 3.34375 -4.984375 3.296875 -4.472656 3.296875 -3.875 C 3.296875 -2.972656 3.507812 -2.246094 3.929688 -1.695312 C 4.355469 -1.140625 4.859375 -0.867188 5.445312 -0.867188 C 6.007812 -0.867188 6.453125 -0.992188 6.785156 -1.242188 C 7.117188 -1.492188 7.414062 -1.847656 7.671875 -2.308594 L 8.242188 -1.914062 C 8.085938 -1.605469 7.898438 -1.324219 7.679688 -1.066406 C 7.460938 -0.8125 7.199219 -0.585938 6.898438 -0.386719 C 6.578125 -0.179688 6.253906 -0.0234375 5.925781 0.0820312 C 5.59375 0.191406 5.214844 0.242188 4.777344 0.242188 Z "/>
</g>
<g id="glyph-0-11">
<path d="M 9.691406 -3.699219 C 9.691406 -2.628906 9.335938 -1.714844 8.621094 -0.949219 C 7.910156 -0.183594 7.007812 0.199219 5.914062 0.199219 C 5.429688 0.199219 5.035156 0.148438 4.730469 0.0507812 C 4.425781 -0.0507812 4.175781 -0.167969 3.980469 -0.3125 L 3.917969 -0.3125 L 3.917969 1.824219 C 3.917969 2 3.957031 2.15625 4.039062 2.285156 C 4.117188 2.417969 4.226562 2.515625 4.367188 2.574219 C 4.503906 2.628906 4.699219 2.679688 4.949219 2.726562 C 5.199219 2.773438 5.40625 2.800781 5.574219 2.808594 L 5.574219 3.371094 L 0.0820312 3.371094 L 0.0820312 2.808594 C 0.210938 2.800781 0.371094 2.78125 0.5625 2.753906 C 0.753906 2.726562 0.898438 2.695312 0.996094 2.667969 C 1.15625 2.609375 1.265625 2.515625 1.324219 2.382812 C 1.382812 2.246094 1.414062 2.09375 1.414062 1.921875 L 1.414062 -5.847656 C 1.398438 -6.015625 1.359375 -6.164062 1.296875 -6.289062 C 1.230469 -6.414062 1.132812 -6.527344 0.996094 -6.625 C 0.894531 -6.6875 0.757812 -6.742188 0.59375 -6.785156 C 0.425781 -6.828125 0.261719 -6.859375 0.0976562 -6.875 L 0.0976562 -7.429688 L 3.804688 -7.625 L 3.917969 -7.527344 L 3.917969 -6.683594 L 3.980469 -6.667969 C 4.3125 -7.007812 4.683594 -7.273438 5.089844 -7.457031 C 5.5 -7.644531 5.902344 -7.738281 6.300781 -7.738281 C 7.347656 -7.738281 8.175781 -7.367188 8.78125 -6.628906 C 9.390625 -5.886719 9.691406 -4.910156 9.691406 -3.699219 M 6.964844 -3.667969 C 6.964844 -4.046875 6.9375 -4.410156 6.882812 -4.757812 C 6.828125 -5.105469 6.726562 -5.414062 6.585938 -5.6875 C 6.449219 -5.960938 6.269531 -6.179688 6.042969 -6.34375 C 5.820312 -6.503906 5.546875 -6.585938 5.222656 -6.585938 C 4.894531 -6.585938 4.632812 -6.527344 4.433594 -6.414062 C 4.238281 -6.300781 4.066406 -6.152344 3.917969 -5.96875 L 3.917969 -1.664062 C 3.949219 -1.5625 4.007812 -1.433594 4.09375 -1.273438 C 4.179688 -1.113281 4.265625 -0.984375 4.351562 -0.890625 C 4.476562 -0.753906 4.621094 -0.652344 4.78125 -0.585938 C 4.945312 -0.519531 5.121094 -0.484375 5.3125 -0.484375 C 5.8125 -0.484375 6.214844 -0.753906 6.515625 -1.296875 C 6.816406 -1.835938 6.964844 -2.625 6.964844 -3.667969 Z "/>
</g>
<g id="glyph-0-12">
<path d="M 5.082031 0 L 0.296875 0 L 0.296875 -0.554688 C 0.429688 -0.566406 0.558594 -0.578125 0.683594 -0.59375 C 0.808594 -0.609375 0.917969 -0.632812 1.015625 -0.667969 C 1.179688 -0.730469 1.289062 -0.816406 1.347656 -0.929688 C 1.40625 -1.042969 1.4375 -1.195312 1.4375 -1.382812 L 1.4375 -9.796875 C 1.4375 -9.992188 1.394531 -10.167969 1.316406 -10.332031 C 1.238281 -10.5 1.132812 -10.625 1.003906 -10.710938 C 0.902344 -10.777344 0.75 -10.839844 0.542969 -10.898438 C 0.339844 -10.960938 0.15625 -10.996094 0 -11.007812 L 0 -11.5625 L 3.828125 -11.757812 L 3.941406 -11.636719 L 3.941406 -1.480469 C 3.941406 -1.292969 3.976562 -1.140625 4.042969 -1.027344 C 4.109375 -0.910156 4.214844 -0.816406 4.363281 -0.753906 C 4.464844 -0.707031 4.570312 -0.664062 4.683594 -0.628906 C 4.796875 -0.59375 4.929688 -0.570312 5.082031 -0.554688 Z "/>
</g>
</g>
</defs>
<g fill="rgb(20.392157%, 59.607843%, 85.882353%)" fill-opacity="1">
<use xlink:href="#glyph-0-0" x="30" y="34.264648"/>
<use xlink:href="#glyph-0-1" x="41" y="34.264648"/>
<use xlink:href="#glyph-0-2" x="52" y="34.264648"/>
<use xlink:href="#glyph-0-3" x="61" y="34.264648"/>
<use xlink:href="#glyph-0-4" x="65" y="34.264648"/>
<use xlink:href="#glyph-0-5" x="76" y="34.264648"/>
<use xlink:href="#glyph-0-6" x="85" y="34.264648"/>
<use xlink:href="#glyph-0-7" x="90" y="34.264648"/>
<use xlink:href="#glyph-0-6" x="98" y="34.264648"/>
<use xlink:href="#glyph-0-8" x="103" y="34.264648"/>
<use xlink:href="#glyph-0-9" x="114" y="34.264648"/>
<use xlink:href="#glyph-0-3" x="123" y="34.264648"/>
<use xlink:href="#glyph-0-4" x="127" y="34.264648"/>
<use xlink:href="#glyph-0-7" x="138" y="34.264648"/>
<use xlink:href="#glyph-0-6" x="146" y="34.264648"/>
<use xlink:href="#glyph-0-8" x="151" y="34.264648"/>
<use xlink:href="#glyph-0-10" x="162" y="34.264648"/>
<use xlink:href="#glyph-0-6" x="170" y="34.264648"/>
<use xlink:href="#glyph-0-11" x="175" y="34.264648"/>
<use xlink:href="#glyph-0-12" x="185" y="34.264648"/>
<use xlink:href="#glyph-0-2" x="190" y="34.264648"/>
</g>
</svg>
