<?xml version="1.0" encoding="UTF-8"?>
<svg xmlns="http://www.w3.org/2000/svg" xmlns:xlink="http://www.w3.org/1999/xlink" width="854" height="480" viewBox="0 0 854 480">
<defs>
<g>
<g id="glyph-0-0">
<path d="M 9.210938 0 L 6.257812 0 C 5.75 -0.78125 5.324219 -1.402344 4.988281 -1.867188 C 4.648438 -2.328125 4.226562 -2.863281 3.726562 -3.472656 L 3.429688 -3.472656 L 3.429688 -1.132812 C 3.429688 -1.003906 3.453125 -0.894531 3.5 -0.804688 C 3.550781 -0.710938 3.644531 -0.636719 3.78125 -0.574219 C 3.851562 -0.546875 3.957031 -0.515625 4.105469 -0.484375 C 4.25 -0.453125 4.375 -0.433594 4.480469 -0.421875 L 4.480469 0 L 0.375 0 L 0.375 -0.421875 C 0.480469 -0.433594 0.617188 -0.449219 0.789062 -0.46875 C 0.960938 -0.488281 1.082031 -0.511719 1.15625 -0.542969 C 1.292969 -0.601562 1.386719 -0.671875 1.433594 -0.761719 C 1.480469 -0.851562 1.503906 -0.964844 1.503906 -1.101562 L 1.503906 -6.53125 C 1.503906 -6.660156 1.484375 -6.769531 1.441406 -6.855469 C 1.402344 -6.945312 1.308594 -7.019531 1.15625 -7.085938 C 1.039062 -7.132812 0.902344 -7.171875 0.746094 -7.203125 C 0.589844 -7.238281 0.464844 -7.261719 0.375 -7.273438 L 0.375 -7.699219 L 4.691406 -7.699219 C 5.660156 -7.699219 6.390625 -7.546875 6.894531 -7.246094 C 7.394531 -6.941406 7.644531 -6.488281 7.644531 -5.875 C 7.644531 -5.335938 7.488281 -4.902344 7.179688 -4.574219 C 6.871094 -4.25 6.398438 -3.992188 5.765625 -3.808594 C 6.011719 -3.488281 6.300781 -3.121094 6.625 -2.703125 C 6.953125 -2.28125 7.296875 -1.855469 7.648438 -1.414062 C 7.761719 -1.273438 7.914062 -1.101562 8.109375 -0.898438 C 8.300781 -0.695312 8.472656 -0.566406 8.621094 -0.519531 C 8.703125 -0.496094 8.808594 -0.472656 8.9375 -0.457031 C 9.066406 -0.4375 9.15625 -0.425781 9.210938 -0.421875 L 9.210938 0 M 5.515625 -5.722656 C 5.515625 -6.238281 5.375 -6.613281 5.085938 -6.847656 C 4.796875 -7.085938 4.390625 -7.203125 3.855469 -7.203125 L 3.429688 -7.203125 L 3.429688 -3.980469 L 3.839844 -3.980469 C 4.371094 -3.980469 4.785156 -4.121094 5.078125 -4.398438 C 5.371094 -4.679688 5.515625 -5.121094 5.515625 -5.722656 Z "/>
</g>
<g id="glyph-0-1">
<path d="M 6.148438 -1.296875 C 6.019531 -1.089844 5.867188 -0.894531 5.6875 -0.714844 C 5.507812 -0.53125 5.304688 -0.375 5.078125 -0.242188 C 4.835938 -0.105469 4.589844 -0.00390625 4.34375 0.0664062 C 4.09375 0.136719 3.808594 0.171875 3.488281 0.171875 C 2.953125 0.171875 2.492188 0.0976562 2.101562 -0.0546875 C 1.714844 -0.207031 1.390625 -0.410156 1.140625 -0.667969 C 0.886719 -0.925781 0.695312 -1.226562 0.574219 -1.574219 C 0.449219 -1.925781 0.386719 -2.304688 0.386719 -2.710938 C 0.386719 -3.082031 0.453125 -3.433594 0.589844 -3.773438 C 0.722656 -4.113281 0.917969 -4.414062 1.167969 -4.675781 C 1.414062 -4.933594 1.722656 -5.140625 2.097656 -5.300781 C 2.472656 -5.460938 2.890625 -5.539062 3.351562 -5.539062 C 3.859375 -5.539062 4.273438 -5.476562 4.601562 -5.355469 C 4.925781 -5.230469 5.195312 -5.0625 5.410156 -4.84375 C 5.613281 -4.636719 5.765625 -4.394531 5.859375 -4.113281 C 5.953125 -3.835938 6 -3.539062 6 -3.234375 L 6 -2.878906 L 2.332031 -2.878906 C 2.332031 -2.140625 2.476562 -1.574219 2.761719 -1.1875 C 3.046875 -0.800781 3.5 -0.609375 4.125 -0.609375 C 4.464844 -0.609375 4.769531 -0.699219 5.039062 -0.886719 C 5.3125 -1.074219 5.542969 -1.308594 5.734375 -1.59375 L 6.148438 -1.296875 M 4.074219 -3.359375 C 4.074219 -3.574219 4.0625 -3.796875 4.042969 -4.027344 C 4.019531 -4.253906 3.980469 -4.441406 3.929688 -4.585938 C 3.867188 -4.753906 3.78125 -4.882812 3.675781 -4.96875 C 3.570312 -5.054688 3.433594 -5.101562 3.269531 -5.101562 C 2.992188 -5.101562 2.769531 -4.957031 2.605469 -4.675781 C 2.4375 -4.394531 2.347656 -3.949219 2.332031 -3.335938 Z "/>
</g>
<g id="glyph-0-2">
<path d="M 11.089844 0 L 7.867188 0 L 7.867188 -0.394531 C 7.945312 -0.40625 8.027344 -0.414062 8.113281 -0.421875 C 8.199219 -0.429688 8.273438 -0.449219 8.328125 -0.476562 C 8.40625 -0.511719 8.457031 -0.574219 8.480469 -0.660156 C 8.5 -0.746094 8.511719 -0.855469 8.511719 -0.988281 L 8.511719 -3.519531 C 8.511719 -3.894531 8.445312 -4.171875 8.3125 -4.359375 C 8.179688 -4.546875 7.992188 -4.636719 7.746094 -4.636719 C 7.589844 -4.636719 7.449219 -4.613281 7.328125 -4.566406 C 7.207031 -4.515625 7.09375 -4.457031 6.992188 -4.382812 C 6.890625 -4.308594 6.808594 -4.230469 6.75 -4.15625 C 6.691406 -4.078125 6.640625 -4.015625 6.601562 -3.960938 L 6.601562 -1.046875 C 6.601562 -0.917969 6.617188 -0.8125 6.648438 -0.730469 C 6.679688 -0.648438 6.734375 -0.585938 6.816406 -0.535156 C 6.875 -0.503906 6.941406 -0.476562 7.015625 -0.449219 C 7.085938 -0.425781 7.164062 -0.40625 7.246094 -0.394531 L 7.246094 0 L 4.167969 0 L 4.167969 -0.394531 C 4.234375 -0.402344 4.316406 -0.414062 4.414062 -0.421875 C 4.511719 -0.433594 4.582031 -0.453125 4.628906 -0.476562 C 4.703125 -0.515625 4.753906 -0.574219 4.777344 -0.652344 C 4.800781 -0.726562 4.8125 -0.839844 4.8125 -0.988281 L 4.8125 -3.519531 C 4.8125 -3.894531 4.746094 -4.171875 4.613281 -4.359375 C 4.480469 -4.546875 4.292969 -4.636719 4.046875 -4.636719 C 3.890625 -4.636719 3.75 -4.613281 3.628906 -4.566406 C 3.507812 -4.515625 3.394531 -4.457031 3.292969 -4.382812 C 3.1875 -4.308594 3.105469 -4.230469 3.050781 -4.15625 C 2.992188 -4.078125 2.941406 -4.015625 2.902344 -3.960938 L 2.902344 -1.046875 C 2.902344 -0.921875 2.917969 -0.816406 2.953125 -0.730469 C 2.984375 -0.648438 3.042969 -0.585938 3.125 -0.535156 C 3.183594 -0.503906 3.25 -0.476562 3.324219 -0.449219 C 3.398438 -0.425781 3.476562 -0.40625 3.558594 -0.394531 L 3.558594 0 L 0.308594 0 L 0.308594 -0.394531 C 0.402344 -0.402344 0.496094 -0.414062 0.585938 -0.421875 C 0.675781 -0.433594 0.753906 -0.453125 0.820312 -0.476562 C 0.933594 -0.519531 1.015625 -0.582031 1.058594 -0.664062 C 1.101562 -0.746094 1.121094 -0.855469 1.121094 -0.988281 L 1.121094 -4.144531 C 1.121094 -4.261719 1.09375 -4.375 1.03125 -4.484375 C 0.96875 -4.59375 0.894531 -4.679688 0.808594 -4.742188 C 0.742188 -4.785156 0.660156 -4.820312 0.5625 -4.851562 C 0.460938 -4.878906 0.351562 -4.898438 0.234375 -4.910156 L 0.234375 -5.304688 L 2.820312 -5.445312 L 2.902344 -5.367188 L 2.902344 -4.601562 L 2.925781 -4.601562 C 3.027344 -4.691406 3.144531 -4.796875 3.285156 -4.921875 C 3.425781 -5.046875 3.554688 -5.148438 3.679688 -5.222656 C 3.8125 -5.3125 3.984375 -5.382812 4.195312 -5.441406 C 4.402344 -5.5 4.632812 -5.527344 4.882812 -5.527344 C 5.296875 -5.527344 5.640625 -5.4375 5.917969 -5.257812 C 6.191406 -5.082031 6.390625 -4.84375 6.503906 -4.546875 L 6.554688 -4.546875 C 6.660156 -4.644531 6.785156 -4.757812 6.9375 -4.890625 C 7.089844 -5.023438 7.230469 -5.128906 7.355469 -5.207031 C 7.496094 -5.296875 7.675781 -5.375 7.894531 -5.4375 C 8.113281 -5.496094 8.347656 -5.527344 8.597656 -5.527344 C 9.144531 -5.527344 9.566406 -5.367188 9.859375 -5.046875 C 10.15625 -4.722656 10.300781 -4.265625 10.300781 -3.671875 L 10.300781 -1.035156 C 10.300781 -0.902344 10.320312 -0.792969 10.363281 -0.714844 C 10.402344 -0.632812 10.472656 -0.570312 10.578125 -0.527344 C 10.636719 -0.5 10.707031 -0.476562 10.792969 -0.449219 C 10.878906 -0.425781 10.976562 -0.40625 11.089844 -0.394531 Z "/>
</g>
<g id="glyph-0-3">
<path d="M 6.785156 -2.652344 C 6.785156 -1.839844 6.519531 -1.164062 5.980469 -0.628906 C 5.445312 -0.09375 4.761719 0.171875 3.9375 0.171875 C 3.621094 0.171875 3.347656 0.152344 3.117188 0.105469 C 2.886719 0.0625 2.691406 0.00390625 2.535156 -0.0585938 C 2.367188 -0.128906 2.234375 -0.195312 2.136719 -0.261719 C 2.035156 -0.328125 1.957031 -0.386719 1.898438 -0.429688 L 1.121094 0.277344 L 0.804688 0.152344 C 0.820312 -0.113281 0.835938 -0.398438 0.847656 -0.707031 C 0.863281 -1.015625 0.867188 -1.433594 0.867188 -1.957031 L 0.867188 -7.035156 C 0.867188 -7.175781 0.839844 -7.300781 0.785156 -7.417969 C 0.726562 -7.535156 0.652344 -7.625 0.558594 -7.6875 C 0.488281 -7.730469 0.390625 -7.769531 0.257812 -7.800781 C 0.125 -7.832031 0.00390625 -7.855469 -0.109375 -7.859375 L -0.109375 -8.257812 L 2.578125 -8.398438 L 2.660156 -8.3125 L 2.660156 -4.785156 L 2.691406 -4.785156 C 2.953125 -5.042969 3.226562 -5.230469 3.503906 -5.347656 C 3.78125 -5.46875 4.058594 -5.527344 4.339844 -5.527344 C 5.097656 -5.527344 5.695312 -5.269531 6.132812 -4.753906 C 6.566406 -4.234375 6.785156 -3.535156 6.785156 -2.652344 M 4.839844 -2.585938 C 4.839844 -2.863281 4.820312 -3.128906 4.777344 -3.382812 C 4.734375 -3.636719 4.667969 -3.863281 4.570312 -4.058594 C 4.472656 -4.253906 4.34375 -4.410156 4.183594 -4.527344 C 4.027344 -4.644531 3.828125 -4.703125 3.59375 -4.703125 C 3.375 -4.703125 3.191406 -4.667969 3.046875 -4.59375 C 2.902344 -4.523438 2.773438 -4.417969 2.660156 -4.273438 L 2.660156 -1.117188 C 2.679688 -1.046875 2.71875 -0.949219 2.78125 -0.832031 C 2.839844 -0.714844 2.898438 -0.625 2.960938 -0.558594 C 3.046875 -0.464844 3.140625 -0.394531 3.238281 -0.34375 C 3.335938 -0.296875 3.472656 -0.269531 3.648438 -0.269531 C 4.015625 -0.269531 4.308594 -0.472656 4.519531 -0.875 C 4.734375 -1.28125 4.839844 -1.851562 4.839844 -2.585938 Z "/>
</g>
<g id="glyph-0-4">
<path d="M 5.71875 -4.390625 C 5.71875 -4.113281 5.632812 -3.871094 5.464844 -3.664062 C 5.292969 -3.457031 5.070312 -3.351562 4.789062 -3.351562 C 4.527344 -3.351562 4.304688 -3.417969 4.121094 -3.550781 C 3.9375 -3.6875 3.847656 -3.882812 3.847656 -4.140625 C 3.847656 -4.265625 3.855469 -4.367188 3.875 -4.4375 C 3.890625 -4.507812 3.90625 -4.570312 3.921875 -4.632812 C 3.757812 -4.625 3.582031 -4.570312 3.394531 -4.460938 C 3.210938 -4.351562 3.050781 -4.210938 2.90625 -4.03125 L 2.90625 -1.050781 C 2.90625 -0.925781 2.929688 -0.820312 2.96875 -0.738281 C 3.007812 -0.65625 3.074219 -0.589844 3.167969 -0.542969 C 3.246094 -0.503906 3.378906 -0.46875 3.554688 -0.441406 C 3.734375 -0.414062 3.863281 -0.398438 3.945312 -0.394531 L 3.945312 0 L 0.316406 0 L 0.316406 -0.394531 C 0.40625 -0.402344 0.496094 -0.414062 0.589844 -0.425781 C 0.679688 -0.4375 0.757812 -0.457031 0.824219 -0.476562 C 0.941406 -0.515625 1.019531 -0.578125 1.0625 -0.660156 C 1.105469 -0.746094 1.128906 -0.855469 1.128906 -0.988281 L 1.128906 -4.144531 C 1.128906 -4.273438 1.097656 -4.390625 1.035156 -4.496094 C 0.976562 -4.597656 0.902344 -4.679688 0.8125 -4.742188 C 0.75 -4.785156 0.667969 -4.820312 0.566406 -4.851562 C 0.46875 -4.878906 0.359375 -4.898438 0.238281 -4.910156 L 0.238281 -5.304688 L 2.828125 -5.445312 L 2.90625 -5.367188 L 2.90625 -4.578125 L 2.929688 -4.578125 C 3.179688 -4.867188 3.445312 -5.09375 3.722656 -5.257812 C 4.003906 -5.425781 4.296875 -5.507812 4.601562 -5.507812 C 4.9375 -5.507812 5.207031 -5.402344 5.410156 -5.195312 C 5.617188 -4.988281 5.71875 -4.71875 5.71875 -4.390625 Z "/>
</g>
<g id="glyph-0-5">
</g>
<g id="glyph-0-6">
<path d="M 7.53125 -5.496094 L 7.105469 -5.496094 C 6.996094 -5.824219 6.816406 -6.175781 6.570312 -6.554688 C 6.320312 -6.929688 6.09375 -7.132812 5.882812 -7.160156 C 5.769531 -7.175781 5.625 -7.1875 5.457031 -7.199219 C 5.285156 -7.210938 5.140625 -7.214844 5.019531 -7.214844 L 4.761719 -7.214844 L 4.761719 -1.175781 C 4.761719 -1.046875 4.785156 -0.933594 4.832031 -0.832031 C 4.878906 -0.734375 4.972656 -0.65625 5.109375 -0.597656 C 5.195312 -0.5625 5.324219 -0.53125 5.5 -0.496094 C 5.671875 -0.460938 5.824219 -0.4375 5.945312 -0.421875 L 5.945312 0 L 1.65625 0 L 1.65625 -0.421875 C 1.757812 -0.433594 1.90625 -0.449219 2.097656 -0.46875 C 2.285156 -0.488281 2.414062 -0.511719 2.484375 -0.542969 C 2.625 -0.601562 2.71875 -0.679688 2.765625 -0.777344 C 2.8125 -0.875 2.835938 -0.988281 2.835938 -1.121094 L 2.835938 -7.214844 L 2.582031 -7.214844 C 2.460938 -7.214844 2.3125 -7.210938 2.144531 -7.199219 C 1.976562 -7.1875 1.832031 -7.175781 1.71875 -7.160156 C 1.507812 -7.132812 1.28125 -6.929688 1.03125 -6.554688 C 0.785156 -6.175781 0.605469 -5.824219 0.492188 -5.496094 L 0.0703125 -5.496094 L 0.0703125 -7.699219 L 7.53125 -7.699219 Z "/>
</g>
<g id="glyph-0-7">
<path d="M 7.367188 0 L 4.105469 0 L 4.105469 -0.394531 C 4.179688 -0.402344 4.265625 -0.414062 4.363281 -0.421875 C 4.460938 -0.433594 4.53125 -0.453125 4.578125 -0.476562 C 4.65625 -0.515625 4.707031 -0.574219 4.738281 -0.652344 C 4.769531 -0.726562 4.785156 -0.839844 4.785156 -0.988281 L 4.785156 -3.527344 C 4.785156 -3.898438 4.714844 -4.175781 4.574219 -4.363281 C 4.4375 -4.546875 4.238281 -4.636719 3.980469 -4.636719 C 3.835938 -4.636719 3.703125 -4.617188 3.578125 -4.574219 C 3.453125 -4.53125 3.332031 -4.464844 3.210938 -4.382812 C 3.105469 -4.3125 3.023438 -4.238281 2.960938 -4.160156 C 2.894531 -4.085938 2.84375 -4.019531 2.800781 -3.960938 L 2.800781 -1.046875 C 2.800781 -0.914062 2.816406 -0.808594 2.847656 -0.730469 C 2.878906 -0.652344 2.941406 -0.585938 3.03125 -0.535156 C 3.085938 -0.503906 3.160156 -0.476562 3.246094 -0.449219 C 3.335938 -0.425781 3.421875 -0.40625 3.503906 -0.394531 L 3.503906 0 L 0.195312 0 L 0.195312 -0.394531 C 0.289062 -0.402344 0.382812 -0.414062 0.472656 -0.421875 C 0.558594 -0.433594 0.640625 -0.453125 0.707031 -0.476562 C 0.824219 -0.519531 0.90625 -0.582031 0.945312 -0.664062 C 0.988281 -0.746094 1.007812 -0.855469 1.007812 -0.988281 L 1.007812 -7.035156 C 1.007812 -7.152344 0.980469 -7.273438 0.925781 -7.40625 C 0.875 -7.535156 0.796875 -7.632812 0.699219 -7.699219 C 0.628906 -7.746094 0.523438 -7.78125 0.386719 -7.808594 C 0.246094 -7.835938 0.125 -7.855469 0.015625 -7.859375 L 0.015625 -8.257812 L 2.71875 -8.398438 L 2.800781 -8.3125 L 2.800781 -4.578125 L 2.820312 -4.578125 C 2.957031 -4.703125 3.082031 -4.8125 3.191406 -4.914062 C 3.300781 -5.011719 3.4375 -5.113281 3.597656 -5.214844 C 3.730469 -5.300781 3.902344 -5.375 4.117188 -5.4375 C 4.332031 -5.496094 4.566406 -5.527344 4.816406 -5.527344 C 5.398438 -5.527344 5.839844 -5.359375 6.132812 -5.023438 C 6.429688 -4.6875 6.574219 -4.246094 6.574219 -3.695312 L 6.574219 -1.035156 C 6.574219 -0.902344 6.59375 -0.796875 6.636719 -0.714844 C 6.675781 -0.636719 6.75 -0.574219 6.855469 -0.527344 C 6.921875 -0.496094 6.996094 -0.472656 7.074219 -0.449219 C 7.152344 -0.429688 7.25 -0.410156 7.367188 -0.394531 Z "/>
</g>
<g id="glyph-0-8">
<path d="M 3.742188 0 L 0.316406 0 L 0.316406 -0.394531 C 0.410156 -0.402344 0.5 -0.414062 0.589844 -0.421875 C 0.683594 -0.433594 0.757812 -0.453125 0.824219 -0.476562 C 0.941406 -0.519531 1.023438 -0.582031 1.070312 -0.664062 C 1.117188 -0.746094 1.140625 -0.855469 1.140625 -0.988281 L 1.140625 -4.144531 C 1.140625 -4.269531 1.109375 -4.382812 1.050781 -4.476562 C 0.996094 -4.574219 0.921875 -4.652344 0.835938 -4.710938 C 0.769531 -4.753906 0.671875 -4.792969 0.539062 -4.832031 C 0.40625 -4.875 0.289062 -4.898438 0.179688 -4.910156 L 0.179688 -5.304688 L 2.835938 -5.445312 L 2.917969 -5.367188 L 2.917969 -1.058594 C 2.917969 -0.929688 2.945312 -0.824219 3 -0.734375 C 3.054688 -0.648438 3.132812 -0.582031 3.234375 -0.535156 C 3.304688 -0.503906 3.386719 -0.476562 3.472656 -0.449219 C 3.558594 -0.425781 3.648438 -0.40625 3.742188 -0.394531 L 3.742188 0 M 2.953125 -7.398438 C 2.953125 -7.125 2.84375 -6.890625 2.632812 -6.699219 C 2.421875 -6.503906 2.171875 -6.40625 1.882812 -6.40625 C 1.589844 -6.40625 1.335938 -6.503906 1.125 -6.699219 C 0.914062 -6.890625 0.808594 -7.125 0.808594 -7.398438 C 0.808594 -7.675781 0.914062 -7.910156 1.125 -8.105469 C 1.335938 -8.300781 1.589844 -8.398438 1.882812 -8.398438 C 2.175781 -8.398438 2.425781 -8.300781 2.636719 -8.105469 C 2.847656 -7.910156 2.953125 -7.675781 2.953125 -7.398438 Z "/>
</g>
<g id="glyph-0-9">
<path d="M 2.828125 0.183594 C 2.476562 0.183594 2.132812 0.132812 1.796875 0.03125 C 1.464844 -0.0742188 1.203125 -0.183594 1.019531 -0.296875 L 0.855469 0.0703125 L 0.433594 0.0703125 L 0.363281 -1.953125 L 0.757812 -1.953125 C 0.8125 -1.789062 0.902344 -1.605469 1.03125 -1.402344 C 1.15625 -1.199219 1.300781 -1.015625 1.464844 -0.851562 C 1.636719 -0.6875 1.828125 -0.550781 2.046875 -0.4375 C 2.265625 -0.328125 2.5 -0.269531 2.75 -0.269531 C 3.078125 -0.269531 3.324219 -0.335938 3.484375 -0.464844 C 3.648438 -0.59375 3.726562 -0.789062 3.726562 -1.058594 C 3.726562 -1.203125 3.691406 -1.320312 3.617188 -1.414062 C 3.546875 -1.511719 3.445312 -1.589844 3.320312 -1.660156 C 3.179688 -1.734375 3.023438 -1.792969 2.855469 -1.84375 C 2.6875 -1.894531 2.480469 -1.957031 2.234375 -2.027344 C 1.988281 -2.101562 1.777344 -2.175781 1.601562 -2.25 C 1.425781 -2.324219 1.246094 -2.441406 1.058594 -2.597656 C 0.894531 -2.738281 0.765625 -2.910156 0.667969 -3.109375 C 0.570312 -3.308594 0.519531 -3.542969 0.519531 -3.820312 C 0.519531 -4.328125 0.734375 -4.742188 1.164062 -5.054688 C 1.59375 -5.371094 2.152344 -5.527344 2.847656 -5.527344 C 3.175781 -5.527344 3.480469 -5.496094 3.757812 -5.429688 C 4.035156 -5.359375 4.265625 -5.289062 4.453125 -5.207031 L 4.566406 -5.527344 L 4.980469 -5.527344 L 5.066406 -3.679688 L 4.6875 -3.679688 C 4.5625 -4.054688 4.34375 -4.378906 4.035156 -4.652344 C 3.730469 -4.925781 3.398438 -5.0625 3.042969 -5.0625 C 2.765625 -5.0625 2.546875 -5.003906 2.386719 -4.886719 C 2.226562 -4.773438 2.148438 -4.613281 2.148438 -4.40625 C 2.148438 -4.128906 2.265625 -3.929688 2.496094 -3.808594 C 2.730469 -3.683594 3.054688 -3.570312 3.476562 -3.460938 C 4.121094 -3.292969 4.59375 -3.066406 4.894531 -2.78125 C 5.195312 -2.492188 5.34375 -2.125 5.34375 -1.683594 C 5.34375 -1.089844 5.113281 -0.628906 4.648438 -0.304688 C 4.183594 0.0234375 3.574219 0.183594 2.828125 0.183594 Z "/>
</g>
<g id="glyph-0-10">
<path d="M 3.148438 -6.839844 C 3.148438 -6.691406 3.121094 -6.496094 3.066406 -6.253906 C 3.015625 -6.007812 2.949219 -5.722656 2.871094 -5.394531 C 2.792969 -5.082031 2.707031 -4.695312 2.609375 -4.230469 C 2.511719 -3.765625 2.410156 -3.191406 2.300781 -2.507812 L 1.882812 -2.507812 C 1.773438 -3.195312 1.671875 -3.773438 1.574219 -4.230469 C 1.476562 -4.691406 1.390625 -5.074219 1.3125 -5.386719 C 1.246094 -5.671875 1.179688 -5.953125 1.121094 -6.226562 C 1.066406 -6.5 1.035156 -6.703125 1.035156 -6.839844 C 1.035156 -7.121094 1.140625 -7.355469 1.34375 -7.554688 C 1.550781 -7.75 1.800781 -7.851562 2.089844 -7.851562 C 2.375 -7.851562 2.621094 -7.75 2.832031 -7.554688 C 3.042969 -7.355469 3.148438 -7.121094 3.148438 -6.839844 M 3.136719 -0.847656 C 3.136719 -0.570312 3.03125 -0.335938 2.824219 -0.136719 C 2.617188 0.0585938 2.371094 0.15625 2.09375 0.15625 C 1.8125 0.15625 1.566406 0.0585938 1.359375 -0.136719 C 1.152344 -0.335938 1.046875 -0.570312 1.046875 -0.847656 C 1.046875 -1.121094 1.152344 -1.359375 1.359375 -1.558594 C 1.566406 -1.761719 1.8125 -1.859375 2.09375 -1.859375 C 2.371094 -1.859375 2.617188 -1.761719 2.824219 -1.558594 C 3.03125 -1.359375 3.136719 -1.121094 3.136719 -0.847656 Z "/>
</g>
</g>
</defs>
<g fill="rgb(100%, 100%, 0%)" fill-opacity="1">
<use xlink:href="#glyph-0-0" x="30" y="30.188477"/>
<use xlink:href="#glyph-0-1" x="39" y="30.188477"/>
<use xlink:href="#glyph-0-2" x="45" y="30.188477"/>
<use xlink:href="#glyph-0-1" x="56" y="30.188477"/>
<use xlink:href="#glyph-0-2" x="62" y="30.188477"/>
<use xlink:href="#glyph-0-3" x="73" y="30.188477"/>
<use xlink:href="#glyph-0-1" x="80" y="30.188477"/>
<use xlink:href="#glyph-0-4" x="86" y="30.188477"/>
<use xlink:href="#glyph-0-5" x="92" y="30.188477"/>
<use xlink:href="#glyph-0-6" x="95" y="30.188477"/>
<use xlink:href="#glyph-0-7" x="103" y="30.188477"/>
<use xlink:href="#glyph-0-8" x="111" y="30.188477"/>
<use xlink:href="#glyph-0-9" x="115" y="30.188477"/>
<use xlink:href="#glyph-0-10" x="121" y="30.188477"/>
</g>
</svg>
